<svg width="14" height="10" viewBox="0 0 14 10" fill="none" xmlns="http://www.w3.org/2000/svg">
<path d="M5.66641 9.27956C5.53514 9.27983 5.40512 9.25417 5.28379 9.20406C5.16246 9.15395 5.05223 9.08038 4.95941 8.98756L0.717408 4.74456C0.621835 4.65238 0.545576 4.54209 0.493083 4.42013C0.440589 4.29816 0.412912 4.16696 0.411665 4.03418C0.410418 3.9014 0.435628 3.76971 0.485821 3.64678C0.536015 3.52385 0.610189 3.41214 0.704015 3.31819C0.79784 3.22423 0.909438 3.1499 1.0323 3.09953C1.15516 3.04916 1.28682 3.02377 1.4196 3.02482C1.55237 3.02588 1.68361 3.05337 1.80565 3.1057C1.92769 3.15802 2.03809 3.23412 2.13041 3.32956L5.66541 6.86456L12.0304 0.501562C12.2179 0.313921 12.4723 0.208453 12.7376 0.208359C13.0028 0.208265 13.2573 0.313553 13.4449 0.501061C13.6325 0.68857 13.738 0.942938 13.7381 1.20821C13.7382 1.47348 13.6329 1.72792 13.4454 1.91556L6.37341 8.98756C6.28059 9.08038 6.17035 9.15395 6.04903 9.20406C5.9277 9.25417 5.79767 9.27983 5.66641 9.27956Z" fill="#2FAB73"/>
</svg>
